# xmcd CD database file
#
# Track frame offsets:
#	150
#	14741
#	32368
#	47274
#	57916
#	73463
#	86378
#	98271
#	112546
#	126178
#	138277
#	149793
#
# Disc length: 2204 seconds
#
# Revision: 0
# Processed by: cddbd v1.5.2PL0 Copyright (c) Steve Scherf et al.
# Submitted via: CDex 1.86
#
DISCID=9a089a0c
DTITLE=Royal Wade Kimes - Shadows
DYEAR=2015
DGENRE=Country
TTITLE0=Wayward Wind
TTITLE1=Cut The Line
TTITLE2=Eight Second Time
TTITLE3=Stephenville Heist
TTITLE4=I'm A Hand
TTITLE5=Gold In These Hills
TTITLE6=Come Here Boy
TTITLE7=Back In Tombstone
TTITLE8=Ride A Bad Hoss
TTITLE9=Turn Back
TTITLE10=Making Hay
TTITLE11=Cowboy Dreaming
EXTD=YEAR: 2015
EXTT0=
EXTT1=
EXTT2=
EXTT3=
EXTT4=
EXTT5=
EXTT6=
EXTT7=
EXTT8=
EXTT9=
EXTT10=
EXTT11=
PLAYORDER=
